<?xml version="1.0" encoding="UTF-8" standalone="no"?><svg width="32" height="32" viewBox="0 0 16 16" version="1.1" id="svg1" xmlns="http://www.w3.org/2000/svg" xmlns:svg="http://www.w3.org/2000/svg"><defs id="defs1" /><g id="layer1"><path style="fill:#aa0000;fill-opacity:1;stroke-width:0.5" d="M 0,0 H 16 V 16 H 0" id="path19" /><path style="fill:#00aa00;fill-opacity:1;stroke-width:0.985468" d="M 0,0 H 16 V 5 H 13 V 6 H 12 V 7 H 11 V 6 H 10 V 5 H 7 V 6 H 6 V 7 H 5 V 6 H 4 V 5 H 1 V 6 H 0" id="path2" /><path style="fill:#aa5500;fill-opacity:1;stroke-width:0.5" d="M 0,6 H 1 V 7 H 0" id="path4" /><path style="fill:#aa5500;fill-opacity:1;stroke-width:0.5" d="M 2,5 H 4 V 7 H 3 V 6 H 2" id="path5" /><path style="fill:#aa5500;fill-opacity:1;stroke-width:0.5" d="M 6,7 V 6 h 1 v 1" id="path6" /><path style="fill:#aa5500;fill-opacity:1;stroke-width:0.5" d="M 7,6 V 5 h 1 v 1" id="path6-3" /><path style="fill:#aa5500;fill-opacity:1;stroke-width:0.5" d="m 9.0587875,4.9923985 0.9662705,0.02013" id="path7" /><path style="fill:#aa5500;fill-opacity:1;stroke-width:0.5" d="m 9,5 h 1 V 7 H 9 V 8 H 8 V 6 h 1" id="path8" /><path style="fill:#aa5500;fill-opacity:1;stroke-width:0.5" d="m 10,7 h 2 v 1 h -2" id="path9" /><path style="fill:#aa5500;fill-opacity:1;stroke-width:0.5" d="M 5,8 H 7 V 9 H 5" id="path9-3" /><path style="fill:#aa5500;fill-opacity:1;stroke-width:0.5" d="M 0,10 H 1 V 9 h 2 v 1 H 2 v 2 H 1 v 1 H 0" id="path10" /><path style="fill:#aa5500;fill-opacity:1;stroke-width:0.5" d="m 3,10 h 2 v 1 H 3" id="path9-3-2" /><path style="fill:#aa5500;fill-opacity:1;stroke-width:0.5" d="m 4,13 v -1 h 1 v 1" id="path6-5" /><path style="fill:#aa5500;fill-opacity:1;stroke-width:0.5" d="m 5,14 v -1 h 1 v 1" id="path6-9" /><path style="fill:#aa5500;fill-opacity:1;stroke-width:0.5" d="m 1,15 h 1 v -1 h 3 v 1 H 3 v 1 H 1" id="path11" /><path style="fill:#aa5500;fill-opacity:1;stroke-width:0.5" d="m 13,5 h 2 v 1 h 1 V 8 H 14 V 9 H 12 V 8 h 1 V 7 h 1 V 6 h -1" id="path12" /><path style="fill:#aa5500;fill-opacity:1;stroke-width:0.5" d="m 14,9 h 2 v 3 h -1 v -2 h -1" id="path13" /><path style="fill:#aa5500;fill-opacity:1;stroke-width:0.5" d="m 14,13 v -1 h 1 v 1" id="path6-5-2" /><path style="fill:#aa5500;fill-opacity:1;stroke-width:0.5" d="m 15,16 v -1 h 1 v 1" id="path6-5-4" /><path style="fill:#aa5500;fill-opacity:1;stroke-width:0.5" d="m 12,16 v -1 h 1 v 1" id="path6-5-0" /><path style="fill:#aa5500;fill-opacity:1;stroke-width:0.5" d="m 13,14 h 2 v 1 h -2" id="path9-3-6" /><path style="fill:#aa5500;fill-opacity:1;stroke-width:0.5" d="M 6,10 H 8.0119945 L 8,11 h 2 v 1 H 9 v 2 H 8 V 12 H 7 V 11 H 6" id="path14" /><path style="fill:#aa5500;fill-opacity:1;stroke-width:0.5" d="m 5,15 h 1 v -1 h 2 v 1 H 7 v 1 H 5" id="path15" /><path style="fill:#aa5500;fill-opacity:1;stroke-width:0.5" d="m 8,16 v -1 h 1 v -1 h 1 v 2" id="path17" /><path style="fill:#aa5500;fill-opacity:1;stroke-width:0.5" d="M 9,10 V 9 h 2 v 1 h 3 v 1 h -2 v 2 h -2 v -1 h 1 v -1 h -1 v -1" id="path18" /></g></svg>
