P3
# Created by GIMP version 3.0.4 PNM plug-in
16 16
255
255
85
255
255
85
255
255
85
255
255
85
255
255
85
255
255
85
255
255
85
255
255
85
255
255
85
255
255
85
255
255
85
255
255
85
255
255
85
255
255
85
255
255
85
255
255
85
255
255
85
255
255
85
255
255
85
255
255
85
255
255
85
255
255
85
255
255
85
255
255
85
255
255
85
255
255
85
255
255
85
255
255
85
255
255
85
255
255
85
255
255
85
255
255
85
255
255
85
255
255
85
255
170
170
170
170
170
170
170
170
170
170
170
170
170
170
170
170
170
170
170
170
170
170
170
170
170
170
170
170
170
170
170
170
170
170
170
170
255
85
255
255
85
255
255
85
255
255
85
255
170
170
170
170
170
170
255
85
255
255
85
255
255
85
255
255
85
255
255
85
255
255
85
255
255
85
255
255
85
255
170
170
170
170
170
170
255
85
255
255
85
255
255
85
255
255
85
255
170
170
170
170
170
170
170
170
170
255
85
255
255
85
255
255
85
255
255
85
255
255
85
255
255
85
255
255
85
255
255
85
255
170
170
170
255
85
255
255
85
255
255
85
255
255
85
255
170
170
170
170
170
170
170
170
170
170
170
170
170
170
170
255
85
255
255
85
255
255
85
255
255
85
255
255
85
255
255
85
255
170
170
170
255
85
255
255
85
255
255
85
255
255
85
255
170
170
170
170
170
170
170
170
170
170
170
170
170
170
170
170
170
170
170
170
170
170
170
170
255
85
255
255
85
255
255
85
255
170
170
170
255
85
255
255
85
255
255
85
255
255
85
255
170
170
170
255
85
255
170
170
170
170
170
170
170
170
170
170
170
170
170
170
170
170
170
170
170
170
170
255
85
255
255
85
255
170
170
170
255
85
255
255
85
255
255
85
255
255
85
255
170
170
170
255
85
255
255
85
255
255
85
255
170
170
170
170
170
170
170
170
170
170
170
170
170
170
170
170
170
170
170
170
170
170
170
170
255
85
255
255
85
255
255
85
255
255
85
255
170
170
170
255
85
255
255
85
255
255
85
255
255
85
255
255
85
255
170
170
170
170
170
170
170
170
170
170
170
170
170
170
170
170
170
170
255
85
255
255
85
255
255
85
255
255
85
255
170
170
170
255
85
255
255
85
255
255
85
255
255
85
255
255
85
255
255
85
255
170
170
170
170
170
170
170
170
170
170
170
170
170
170
170
255
85
255
255
85
255
255
85
255
255
85
255
170
170
170
170
170
170
255
85
255
255
85
255
255
85
255
255
85
255
255
85
255
255
85
255
255
85
255
255
85
255
170
170
170
170
170
170
255
85
255
255
85
255
255
85
255
255
85
255
170
170
170
170
170
170
170
170
170
255
85
255
255
85
255
255
85
255
255
85
255
255
85
255
255
85
255
255
85
255
255
85
255
170
170
170
255
85
255
255
85
255
255
85
255
255
85
255
170
170
170
170
170
170
170
170
170
170
170
170
170
170
170
170
170
170
170
170
170
170
170
170
170
170
170
170
170
170
170
170
170
170
170
170
255
85
255
255
85
255
255
85
255
255
85
255
255
85
255
255
85
255
255
85
255
255
85
255
255
85
255
255
85
255
255
85
255
255
85
255
255
85
255
255
85
255
255
85
255
255
85
255
255
85
255
255
85
255
255
85
255
255
85
255
255
85
255
255
85
255
255
85
255
255
85
255
255
85
255
255
85
255
255
85
255
255
85
255
255
85
255
255
85
255
255
85
255
255
85
255
255
85
255
255
85
255
