P3
# Created by GIMP version 3.0.4 PNM plug-in
16 16
255
0
170
0
0
170
0
0
170
0
0
170
0
0
170
0
0
170
0
0
170
0
0
170
0
0
170
0
0
170
0
0
170
0
0
170
0
0
170
0
0
170
0
0
170
0
0
170
0
0
170
0
0
170
0
0
170
0
0
170
0
0
170
0
0
170
0
0
170
0
0
170
0
0
170
0
0
170
0
0
170
0
0
170
0
0
170
0
0
170
0
0
170
0
0
170
0
0
170
0
0
170
0
0
170
0
0
170
0
0
170
0
0
170
0
0
170
0
0
170
0
0
170
0
0
170
0
0
170
0
0
170
0
0
170
0
0
170
0
0
170
0
0
170
0
0
170
0
0
170
0
0
170
0
0
170
0
0
170
0
0
170
0
0
170
0
0
170
0
0
170
0
0
170
0
0
170
0
0
170
0
0
170
0
0
170
0
0
170
0
0
170
0
0
170
0
0
170
0
170
0
0
0
170
0
0
170
0
0
170
0
0
170
0
0
170
0
170
0
0
0
170
0
0
170
0
0
170
0
0
170
0
0
170
0
170
0
0
0
170
0
0
170
0
170
0
0
170
0
0
170
0
0
0
170
0
0
170
0
0
170
0
170
0
0
170
0
0
170
0
0
0
170
0
0
170
0
0
170
0
170
0
0
170
0
0
170
0
0
170
0
0
170
0
0
170
0
0
170
0
0
170
0
0
0
170
0
170
0
0
170
0
0
170
0
0
170
0
0
170
0
0
0
170
0
170
0
0
170
0
0
170
0
0
170
0
0
170
0
0
170
0
0
170
0
0
170
0
0
170
0
0
170
0
0
170
0
0
170
0
0
170
0
0
170
0
0
170
0
0
170
0
0
170
0
0
170
0
0
170
0
0
170
0
0
170
0
0
170
0
0
170
0
0
170
0
0
170
0
0
170
0
0
170
0
0
170
0
0
170
0
0
170
0
0
170
0
0
170
0
0
170
0
0
170
0
0
170
0
0
170
0
0
170
0
0
170
0
0
170
0
0
170
0
0
170
0
0
170
0
0
170
0
0
170
0
0
170
0
0
170
0
0
170
0
0
170
0
0
170
0
0
170
0
0
170
0
0
170
0
0
170
0
0
170
0
0
170
0
0
170
0
0
170
0
0
170
0
0
170
0
0
170
0
0
170
0
0
170
0
0
170
0
0
170
0
0
170
0
0
170
0
0
170
0
0
170
0
0
170
0
0
170
0
0
170
0
0
170
0
0
170
0
0
170
0
0
170
0
0
170
0
0
170
0
0
170
0
0
170
0
0
170
0
0
170
0
0
170
0
0
170
0
0
170
0
0
170
0
0
170
0
0
170
0
0
170
0
0
170
0
0
170
0
0
170
0
0
170
0
0
170
0
0
170
0
0
170
0
0
170
0
0
170
0
0
170
0
0
170
0
0
170
0
0
170
0
0
170
0
0
170
0
0
170
0
0
170
0
0
170
0
0
170
0
0
170
0
0
170
0
0
170
0
0
170
0
0
170
0
0
170
0
0
170
0
0
170
0
0
170
0
0
170
0
0
170
0
0
170
0
0
170
0
0
170
0
0
170
0
0
170
0
0
170
0
0
170
0
0
170
0
0
170
0
0
170
0
0
170
0
0
170
0
0
170
0
0
170
0
0
170
0
0
170
0
0
170
0
0
170
0
0
170
0
0
170
0
0
170
0
0
170
0
0
170
0
0
170
0
0
170
0
0
170
0
0
170
0
0
170
0
0
170
0
0
170
0
0
