P3
# Created by GIMP version 3.0.4 PNM plug-in
16 16
255
85
255
85
85
255
85
85
255
85
85
255
85
85
255
85
85
255
85
85
255
85
85
255
85
85
255
85
85
255
85
85
255
85
85
255
85
85
255
85
85
255
85
85
255
85
85
255
85
85
255
85
85
255
85
85
255
85
85
255
85
85
255
85
85
255
85
85
255
85
85
255
85
85
255
85
85
255
85
85
255
85
85
255
85
85
255
85
85
255
85
85
255
85
85
255
85
85
255
85
85
255
85
170
170
170
170
170
170
170
170
170
170
170
170
170
170
170
170
170
170
170
170
170
170
170
170
170
170
170
170
170
170
170
170
170
170
170
170
85
255
85
85
255
85
85
255
85
85
255
85
170
170
170
170
170
170
85
255
85
85
255
85
170
170
170
170
170
170
170
170
170
170
170
170
85
255
85
85
255
85
170
170
170
170
170
170
85
255
85
85
255
85
85
255
85
85
255
85
170
170
170
85
255
85
85
255
85
85
255
85
85
255
85
170
170
170
170
170
170
85
255
85
85
255
85
85
255
85
85
255
85
170
170
170
85
255
85
85
255
85
85
255
85
85
255
85
170
170
170
85
255
85
85
255
85
85
255
85
170
170
170
170
170
170
170
170
170
85
255
85
85
255
85
85
255
85
85
255
85
170
170
170
85
255
85
85
255
85
85
255
85
85
255
85
170
170
170
85
255
85
85
255
85
170
170
170
170
170
170
170
170
170
170
170
170
85
255
85
85
255
85
85
255
85
170
170
170
170
170
170
85
255
85
85
255
85
85
255
85
85
255
85
170
170
170
85
255
85
170
170
170
170
170
170
170
170
170
170
170
170
170
170
170
170
170
170
170
170
170
85
255
85
170
170
170
170
170
170
85
255
85
85
255
85
85
255
85
85
255
85
170
170
170
170
170
170
170
170
170
170
170
170
170
170
170
170
170
170
170
170
170
170
170
170
170
170
170
170
170
170
170
170
170
170
170
170
85
255
85
85
255
85
85
255
85
85
255
85
170
170
170
170
170
170
85
255
85
85
255
85
170
170
170
170
170
170
170
170
170
170
170
170
170
170
170
85
255
85
85
255
85
170
170
170
85
255
85
85
255
85
85
255
85
85
255
85
170
170
170
170
170
170
85
255
85
85
255
85
85
255
85
170
170
170
170
170
170
170
170
170
170
170
170
85
255
85
85
255
85
170
170
170
85
255
85
85
255
85
85
255
85
85
255
85
170
170
170
85
255
85
85
255
85
85
255
85
85
255
85
85
255
85
170
170
170
85
255
85
85
255
85
85
255
85
85
255
85
170
170
170
85
255
85
85
255
85
85
255
85
85
255
85
170
170
170
170
170
170
85
255
85
85
255
85
85
255
85
85
255
85
170
170
170
85
255
85
85
255
85
85
255
85
170
170
170
170
170
170
85
255
85
85
255
85
85
255
85
85
255
85
170
170
170
170
170
170
170
170
170
170
170
170
170
170
170
170
170
170
170
170
170
170
170
170
170
170
170
170
170
170
170
170
170
170
170
170
85
255
85
85
255
85
85
255
85
85
255
85
85
255
85
85
255
85
85
255
85
85
255
85
85
255
85
85
255
85
85
255
85
85
255
85
85
255
85
85
255
85
85
255
85
85
255
85
85
255
85
85
255
85
85
255
85
85
255
85
85
255
85
85
255
85
85
255
85
85
255
85
85
255
85
85
255
85
85
255
85
85
255
85
85
255
85
85
255
85
85
255
85
85
255
85
85
255
85
85
255
85
